<svg width="38" height="38" viewBox="0 0 38 38" fill="none" xmlns="http://www.w3.org/2000/svg">
<path d="M18.9505 6.51562H15.812V15.9154H9.78223V19.0539H18.9509L18.9505 6.51562Z" fill="black"/>
<path d="M34.1604 20.078C34.7197 16.7786 34.3048 13.3882 32.9662 10.3209C31.6278 7.2542 29.4238 4.64414 26.6241 2.81119C23.8247 0.978021 20.5516 0.00112188 17.2054 1.01763e-06C14.0223 -0.00109357 10.9011 0.880856 8.18949 2.54848C5.47792 4.21583 3.28244 6.60312 1.84718 9.44443C0.412201 12.2857 -0.206233 15.4696 0.0605313 18.6418C0.327611 21.8136 1.4698 24.8492 3.35992 27.4104C5.24997 29.9717 7.81379 31.9584 10.766 33.1488C13.7181 34.3394 16.9428 34.6875 20.0803 34.1539C21.8506 36.4126 24.5033 37.8046 27.3673 37.9779C30.2316 38.1511 33.0329 37.0888 35.062 35.0603C37.0914 33.0314 38.1543 30.2307 37.9819 27.3663C37.8095 24.502 36.4183 21.8487 34.1601 20.0779L34.1604 20.078ZM17.2053 31.2586C13.4763 31.2586 9.90006 29.7773 7.26324 27.1405C4.62635 24.5039 3.14514 20.9276 3.14514 17.1985C3.14514 13.4695 4.62642 9.89326 7.26324 7.25644C9.89985 4.61955 13.4762 3.13834 17.2053 3.13834C20.9342 3.13834 24.5105 4.61962 27.1473 7.25644C29.7842 9.89305 31.2654 13.4694 31.2654 17.1985C31.2654 17.6221 31.2419 18.046 31.2027 18.4657C28.825 17.6535 26.2292 17.7636 23.929 18.7739C21.6288 19.7845 19.7915 21.6217 18.7809 23.922C17.7706 26.2222 17.6606 28.8181 18.4728 31.1956C18.053 31.2348 17.6292 31.2583 17.2055 31.2583L17.2053 31.2586ZM27.962 34.8521C26.1343 34.851 24.3816 34.1242 23.0897 32.8309C21.7981 31.538 21.0726 29.7847 21.0732 27.9567C21.074 26.129 21.8006 24.3764 23.0936 23.0842C24.3863 21.792 26.1395 21.0663 27.9675 21.0665C29.7952 21.0671 31.5481 21.7934 32.8403 23.0861C34.1328 24.3785 34.8587 26.1315 34.8587 27.9594C34.8568 29.7868 34.1297 31.5387 32.8375 32.8309C31.5453 34.123 29.7935 34.8501 27.9661 34.8521L27.962 34.8521Z" fill="black"/>
<path d="M26.3965 22.9062H29.535V30.2619H26.3965V22.9062Z" fill="black"/>
<path d="M26.3965 31.1445H29.535V33.4002H26.3965V31.1445Z" fill="black"/>
</svg>
