<svg width="37" height="37" viewBox="0 0 37 37" fill="none" xmlns="http://www.w3.org/2000/svg">
<path d="M36.3833 0H33.3C32.9589 0 32.6833 0.276401 32.6833 0.616667V10.4812H22.2V5.07548C22.2 4.73522 21.9244 4.45882 21.5833 4.45882H15.4167C15.0756 4.45882 14.8 4.73522 14.8 5.07548V10.4812H13.5667V5.07548C13.5667 4.73522 13.2911 4.45882 12.95 4.45882H6.78333C6.44224 4.45882 6.16667 4.73522 6.16667 5.07548V10.4812H4.31667V0.616667C4.31667 0.276401 4.04109 0 3.7 0H0.616667C0.275576 0 0 0.276401 0 0.616667V36.3833C0 36.7236 0.275576 37 0.616667 37H3.7C4.04109 37 4.31667 36.7236 4.31667 36.3833V32.0648H32.6833V36.3833C32.6833 36.7236 32.9589 37 33.3 37H36.3833C36.7244 37 37 36.7236 37 36.3833V0.616667C37 0.276401 36.7244 0 36.3833 0ZM16.0333 5.69236H17.8833V6.63829C17.8833 6.97856 18.1589 7.25496 18.5 7.25496C18.8411 7.25496 19.1167 6.97856 19.1167 6.63829V5.69236H20.9667V10.4814H16.0333V5.69236ZM7.4 5.69236H9.25V6.63829C9.25 6.97856 9.52558 7.25496 9.86667 7.25496C10.2078 7.25496 10.4833 6.97856 10.4833 6.63829V5.69236H12.3333V10.4814H7.4V5.69236ZM6.78333 11.7148H32.6833V20.9648H30.8333V15.559C30.8333 15.2188 30.5578 14.9424 30.2167 14.9424H24.05C23.7089 14.9424 23.4333 15.2188 23.4333 15.559V20.9648H13.5667V15.559C13.5667 15.2188 13.2911 14.9424 12.95 14.9424H6.78333C6.44224 14.9424 6.16667 15.2188 6.16667 15.559V20.9648H4.31667V11.7148H6.78333ZM27.1333 17.7386C27.4744 17.7386 27.75 17.4622 27.75 17.1219V16.176H29.6V20.965H24.6667V16.176H26.5167V17.1219C26.5167 17.4622 26.7922 17.7386 27.1333 17.7386ZM9.86667 17.7386C10.2078 17.7386 10.4833 17.4622 10.4833 17.1219V16.176H12.3333V20.965H7.4V16.176H9.25V17.1219C9.25 17.4622 9.52558 17.7386 9.86667 17.7386ZM3.08333 35.7664H1.23333V1.23305H3.08333V35.7664ZM7.4 30.8311V26.0421H9.25V26.988C9.25 27.3283 9.52558 27.6047 9.86667 27.6047C10.2078 27.6047 10.4833 27.3283 10.4833 26.988V26.0421H12.3333V30.8311H7.4ZM16.0333 30.8311V26.0421H17.8833V26.988C17.8833 27.3283 18.1589 27.6047 18.5 27.6047C18.8411 27.6047 19.1167 27.3283 19.1167 26.988V26.0421H20.9667V30.8311H16.0333ZM24.6667 30.8311V26.0421H26.5167V26.988C26.5167 27.3283 26.7922 27.6047 27.1333 27.6047C27.4744 27.6047 27.75 27.3283 27.75 26.988V26.0421H29.6V30.8311H24.6667ZM30.8333 30.8311V25.4254C30.8333 25.0851 30.5578 24.8087 30.2167 24.8087H24.05C23.7089 24.8087 23.4333 25.0851 23.4333 25.4254V30.8311H22.2V25.4254C22.2 25.0851 21.9244 24.8087 21.5833 24.8087H15.4167C15.0756 24.8087 14.8 25.0851 14.8 25.4254V30.8311H13.5667V25.4254C13.5667 25.0851 13.2911 24.8087 12.95 24.8087H6.78333C6.44224 24.8087 6.16667 25.0851 6.16667 25.4254V30.8311H4.31667V22.1978H32.6833V30.8311H30.8333ZM35.7667 35.7664H33.9167V1.23305H35.7667V35.7664Z" fill="black"/>
</svg>
