<svg width="35" height="35" viewBox="0 0 35 35" fill="none" xmlns="http://www.w3.org/2000/svg">
<path fill-rule="evenodd" clip-rule="evenodd" d="M31.9824 0H7.8444C6.17819 0 4.82715 1.35104 4.82715 3.01725V12.6724C4.82715 13.0054 5.09762 13.2759 5.4306 13.2759C5.76357 13.2759 6.03405 13.0054 6.03405 12.6724V3.01725C6.03405 2.01725 6.84439 1.2069 7.8444 1.2069H29.5686C29.1793 1.72576 28.9651 2.36069 28.9651 3.01725V13.8918C28.9651 14.225 29.2356 14.4952 29.5686 14.4952C29.9016 14.4952 30.172 14.225 30.172 13.8918V6.0345H33.1893C34.1893 6.0345 34.9996 5.22415 34.9996 4.22415V3.01725C34.9996 2.21711 34.6817 1.44938 34.1162 0.883381C33.5502 0.317918 32.7825 0 31.9824 0ZM31.9824 1.2069C31.502 1.2069 31.0416 1.39763 30.7024 1.73734C30.3627 2.07651 30.172 2.53693 30.172 3.01728V4.82762H33.1892C33.5222 4.82762 33.7927 4.55715 33.7927 4.22417V3.01728C33.7927 2.53694 33.602 2.07651 33.2623 1.73734C32.9231 1.39763 32.4627 1.2069 31.9823 1.2069H31.9824Z" fill="black"/>
<path fill-rule="evenodd" clip-rule="evenodd" d="M15.6897 17.5002C15.6897 16.7 15.3718 15.9323 14.8063 15.3663C14.2403 14.8008 13.4725 14.4829 12.6724 14.4829H3.01725C2.21711 14.4829 1.44938 14.8008 0.883381 15.3663C0.317918 15.9323 0 16.7001 0 17.5002V31.9829C0 32.7831 0.31789 33.5508 0.883381 34.1168C1.44938 34.6823 2.21718 35.0002 3.01725 35.0002H12.6724C13.4726 35.0002 14.2403 34.6823 14.8063 34.1168C15.3718 33.5508 15.6897 32.783 15.6897 31.9829V17.5002V17.5002ZM14.4828 17.5002V31.9829C14.4828 32.4633 14.2921 32.9237 13.9523 33.2629C13.6132 33.6026 13.1528 33.7933 12.6724 33.7933H3.01722C2.53689 33.7933 2.07646 33.6026 1.73729 33.2629C1.39758 32.9237 1.20684 32.4633 1.20684 31.9829V17.5002C1.20684 17.0198 1.39758 16.5594 1.73729 16.2202C2.07646 15.8805 2.53687 15.6898 3.01722 15.6898H12.6724C13.1527 15.6898 13.6132 15.8805 13.9523 16.2202C14.2921 16.5594 14.4828 17.0198 14.4828 17.5002Z" fill="black"/>
<path fill-rule="evenodd" clip-rule="evenodd" d="M13.2762 18.7068C13.2762 17.7068 12.4658 16.8965 11.4658 16.8965H4.22441C3.22441 16.8965 2.41406 17.7068 2.41406 18.7068V21.1206C2.41406 22.1206 3.22441 22.931 4.22441 22.931H11.4658C12.4658 22.931 13.2762 22.1206 13.2762 21.1206V18.7068ZM12.0693 18.7068V21.1206C12.0693 21.4536 11.7988 21.7241 11.4658 21.7241H4.22441C3.89144 21.7241 3.62096 21.4536 3.62096 21.1206V18.7068C3.62096 18.3739 3.89144 18.1034 4.22441 18.1034H11.4658C11.7988 18.1034 12.0693 18.3739 12.0693 18.7068Z" fill="black"/>
<path fill-rule="evenodd" clip-rule="evenodd" d="M13.2762 30.7761V25.9485C13.2762 24.9485 12.4658 24.1382 11.4658 24.1382H4.22441C3.22441 24.1382 2.41406 24.9485 2.41406 25.9485V30.7761C2.41406 31.7761 3.22441 32.5865 4.22441 32.5865H11.4658C12.4658 32.5865 13.2762 31.7761 13.2762 30.7761ZM4.82786 31.3796H4.22441C3.89144 31.3796 3.62096 31.1091 3.62096 30.7761V30.1727H4.82786V31.3796ZM6.03476 30.1727V31.3796H7.24166V30.1727H6.03476ZM8.44856 30.1727V31.3796H9.65546V30.1727H8.44856ZM12.0693 30.1727V30.7761C12.0693 31.1091 11.7988 31.3796 11.4658 31.3796H10.8624V30.1727H12.0693ZM3.62096 27.7589V28.9658H4.82786V27.7589H3.62096ZM6.03476 27.7589V28.9658H7.24166V27.7589H6.03476ZM8.44856 27.7589V28.9658H9.65546V27.7589H8.44856ZM10.8624 27.7589V28.9658H12.0693V27.7589H10.8624ZM4.82786 25.3451V26.552H3.62096V25.9485C3.62096 25.6156 3.89144 25.3451 4.22441 25.3451H4.82786ZM6.03476 25.3451V26.552H7.24166V25.3451H6.03476ZM8.44856 25.3451V26.552H9.65546V25.3451H8.44856ZM10.8624 25.3451H11.4658C11.7988 25.3451 12.0693 25.6156 12.0693 25.9485V26.552H10.8624V25.3451Z" fill="black"/>
<path fill-rule="evenodd" clip-rule="evenodd" d="M20.5608 28.9655H17.5284C17.1957 28.9655 16.925 29.2359 16.925 29.5689C16.925 29.9019 17.1957 30.1724 17.5284 30.1724H23.5338C23.8668 30.1724 24.1372 30.4428 24.1372 30.7758V31.9827C24.1372 32.6392 24.3514 33.2742 24.7407 33.7931H17.4993C17.1663 33.7931 16.8959 34.0635 16.8959 34.3965C16.8959 34.7295 17.1663 35 17.4993 35H27.1545C27.9546 35 28.7224 34.6821 29.2884 34.1166C29.8538 33.5506 30.1717 32.7828 30.1717 31.9827V30.75C30.1717 30.4167 29.9013 30.1465 29.5683 30.1465C29.2353 30.1465 28.9648 30.4167 28.9648 30.75V31.9827C28.9648 32.463 28.7741 32.9235 28.4344 33.2626C28.0952 33.6024 27.6348 33.7931 27.1545 33.7931C26.6741 33.7931 26.2137 33.6024 25.8745 33.2626C25.5348 32.9235 25.3441 32.4631 25.3441 31.9827V30.7758C25.3441 30.5587 25.3056 30.3499 25.2355 30.1567C29.3347 29.9008 32.5852 26.4908 32.5852 22.3278C32.5852 17.998 29.0701 14.4829 24.7404 14.4829C20.4106 14.4829 16.8955 17.998 16.8955 22.3278C16.8955 25.1211 18.3589 27.5753 20.5604 28.9657L20.5608 28.9655ZM24.7407 15.6896C28.4042 15.6896 31.3786 18.664 31.3786 22.3275C31.3786 25.991 28.4042 28.9655 24.7407 28.9655C21.0772 28.9655 18.1028 25.991 18.1028 22.3275C18.1028 18.664 21.0772 15.6896 24.7407 15.6896V15.6896Z" fill="black"/>
<path fill-rule="evenodd" clip-rule="evenodd" d="M24.1374 18.1034C22.8039 18.1034 21.7236 19.1842 21.7236 20.5172C21.7236 21.8502 22.8039 22.931 24.1374 22.931V25.3448C23.4707 25.3448 22.9305 24.8046 22.9305 24.1379C22.9305 23.8049 22.6601 23.5344 22.3271 23.5344C21.9941 23.5344 21.7236 23.8049 21.7236 24.1379C21.7236 25.4708 22.8039 26.5517 24.1374 26.5517V27.1551C24.1374 27.4881 24.4079 27.7586 24.7409 27.7586C25.0739 27.7586 25.3443 27.4881 25.3443 27.1551V26.5517C26.6773 26.5517 27.7581 25.4708 27.7581 24.1379C27.7581 22.8049 26.6773 21.7241 25.3443 21.7241V19.3103C26.0106 19.3103 26.5512 19.8504 26.5512 20.5172C26.5512 20.8502 26.8217 21.1206 27.1547 21.1206C27.4877 21.1206 27.7581 20.8502 27.7581 20.5172C27.7581 19.1842 26.6773 18.1034 25.3443 18.1034V17.4999C25.3443 17.167 25.0739 16.8965 24.7409 16.8965C24.4079 16.8965 24.1374 17.167 24.1374 17.4999V18.1034ZM25.3443 22.931V25.3448C26.0106 25.3448 26.5512 24.8046 26.5512 24.1379C26.5512 23.4711 26.0106 22.931 25.3443 22.931ZM24.1374 19.3103C23.4707 19.3103 22.9305 19.8504 22.9305 20.5172C22.9305 21.1839 23.4707 21.7241 24.1374 21.7241V19.3103Z" fill="black"/>
<path fill-rule="evenodd" clip-rule="evenodd" d="M11.4656 4.82764C10.4664 4.82764 9.65527 5.63881 9.65527 6.63799C9.65527 7.63716 10.4664 8.44833 11.4656 8.44833C12.4648 8.44833 13.276 7.63716 13.276 6.63799C13.276 5.63881 12.4648 4.82764 11.4656 4.82764ZM11.4656 6.03454C11.7986 6.03454 12.0691 6.30501 12.0691 6.63799C12.0691 6.97096 11.7986 7.24144 11.4656 7.24144C11.1326 7.24144 10.8622 6.97096 10.8622 6.63799C10.8622 6.30501 11.1326 6.03454 11.4656 6.03454Z" fill="black"/>
<path fill-rule="evenodd" clip-rule="evenodd" d="M16.2928 9.65479C15.2936 9.65479 14.4824 10.466 14.4824 11.4651C14.4824 12.4643 15.2936 13.2755 16.2928 13.2755C17.2919 13.2755 18.1031 12.4643 18.1031 11.4651C18.1031 10.466 17.2919 9.65479 16.2928 9.65479ZM16.2928 10.8617C16.626 10.8617 16.8962 11.1322 16.8962 11.4651C16.8962 11.7981 16.626 12.0686 16.2928 12.0686C15.9598 12.0686 15.6893 11.7981 15.6893 11.4651C15.6893 11.1322 15.9598 10.8617 16.2928 10.8617Z" fill="black"/>
<path fill-rule="evenodd" clip-rule="evenodd" d="M10.6861 13.0994L17.9275 5.85797C18.1627 5.62251 18.1627 5.23997 17.9275 5.00452C17.692 4.76933 17.3095 4.76933 17.074 5.00452L9.83264 12.2459C9.59745 12.4814 9.59745 12.8639 9.83264 13.0994C10.0681 13.3345 10.4506 13.3345 10.6861 13.0994Z" fill="black"/>
<path fill-rule="evenodd" clip-rule="evenodd" d="M19.913 6.03454H24.7406C25.0736 6.03454 25.3441 5.76433 25.3441 5.43109C25.3441 5.09811 25.0736 4.82764 24.7406 4.82764H19.913C19.58 4.82764 19.3096 5.09811 19.3096 5.43109C19.3096 5.76433 19.58 6.03454 19.913 6.03454Z" fill="black"/>
<path fill-rule="evenodd" clip-rule="evenodd" d="M19.913 8.44811H24.7406C25.0736 8.44811 25.3441 8.17763 25.3441 7.84466C25.3441 7.51169 25.0736 7.24121 24.7406 7.24121H19.913C19.58 7.24121 19.3096 7.51169 19.3096 7.84466C19.3096 8.17763 19.58 8.44811 19.913 8.44811Z" fill="black"/>
<path fill-rule="evenodd" clip-rule="evenodd" d="M19.913 10.8617H24.7406C25.0736 10.8617 25.3441 10.5912 25.3441 10.2582C25.3441 9.92499 25.0736 9.65479 24.7406 9.65479H19.913C19.58 9.65479 19.3096 9.92499 19.3096 10.2582C19.3096 10.5912 19.58 10.8617 19.913 10.8617Z" fill="black"/>
<path fill-rule="evenodd" clip-rule="evenodd" d="M19.913 13.2757H24.7406C25.0736 13.2757 25.3441 13.0053 25.3441 12.6723C25.3441 12.3391 25.0736 12.0688 24.7406 12.0688H19.913C19.58 12.0688 19.3096 12.3391 19.3096 12.6723C19.3096 13.0053 19.58 13.2757 19.913 13.2757Z" fill="black"/>
</svg>
