<svg width="47" height="16" viewBox="0 0 47 16" fill="none" xmlns="http://www.w3.org/2000/svg">
<path d="M42.3 0H15.3099C14.5619 0.000128315 13.8247 0.0761363 13.1597 0.221706C12.4947 0.367276 11.921 0.578202 11.4864 0.836952L0.43895 7.40973C0.153511 7.5789 0 7.78183 0 7.99C0 8.19817 0.153511 8.4011 0.43895 8.57027L11.4864 15.143C11.921 15.4018 12.4947 15.6127 13.1597 15.7583C13.8247 15.9039 14.5619 15.9799 15.3099 15.98H42.3C44.892 15.98 47 15.0841 47 13.9825V1.9975C47 0.895879 44.892 0 42.3 0ZM42.3 13.9825H15.3099L5.2377 7.99L15.3099 1.9975H42.3V13.9825Z" fill="black"/>
<path d="M20.7248 11.7002L20.7136 5.94739L17.8597 10.7414H17.3408L14.487 5.98124V11.7002H13.4041V3.80419H14.3291L17.6228 9.35396L20.8715 3.80419H21.7964L21.8077 11.7002H20.7248ZM24.7865 5.6654C25.6137 5.6654 26.2454 5.86844 26.6816 6.27452C27.1252 6.6806 27.3471 7.28596 27.3471 8.0906V11.7002H26.3206V10.9106C26.1401 11.1888 25.8807 11.4032 25.5423 11.5536C25.2114 11.6964 24.8166 11.7679 24.3579 11.7679C23.6886 11.7679 23.1509 11.6062 22.7448 11.2828C22.3463 10.9595 22.147 10.5346 22.147 10.0082C22.147 9.4818 22.3388 9.06068 22.7223 8.74484C23.1058 8.42148 23.7149 8.2598 24.5496 8.2598H26.2642V8.04548C26.2642 7.57924 26.1288 7.22204 25.8581 6.97388C25.5874 6.72572 25.1888 6.60164 24.6624 6.60164C24.309 6.60164 23.9631 6.6618 23.6247 6.78212C23.2863 6.89492 23.0005 7.04908 22.7674 7.2446L22.3162 6.43244C22.6245 6.18428 22.993 5.99628 23.4216 5.86844C23.8503 5.73308 24.3052 5.6654 24.7865 5.6654ZM24.5384 10.9332C24.952 10.9332 25.3092 10.8429 25.61 10.6624C25.9108 10.4744 26.1288 10.2112 26.2642 9.87284V9.03812H24.5948C23.6773 9.03812 23.2186 9.34644 23.2186 9.96308C23.2186 10.2639 23.3352 10.5008 23.5683 10.6737C23.8014 10.8467 24.1248 10.9332 24.5384 10.9332ZM28.9788 6.72572C29.1668 6.3798 29.445 6.1166 29.8135 5.93612C30.182 5.75564 30.6295 5.6654 31.1558 5.6654V6.71444C31.0957 6.70692 31.013 6.70316 30.9077 6.70316C30.3211 6.70316 29.8586 6.87988 29.5202 7.23332C29.1894 7.57924 29.0239 8.07556 29.0239 8.72228V11.7002H27.941V5.7218H28.9788V6.72572ZM33.6311 11.7679C33.022 11.7679 32.4768 11.6363 31.9955 11.3731C31.5217 11.1099 31.1495 10.7489 30.8788 10.2902C30.6081 9.82396 30.4727 9.29756 30.4727 8.711C30.4727 8.12444 30.6081 7.6018 30.8788 7.14308C31.1495 6.67684 31.5217 6.31588 31.9955 6.0602C32.4768 5.797 33.022 5.6654 33.6311 5.6654C34.1725 5.6654 34.6538 5.77444 35.0749 5.99251C35.5036 6.2106 35.8345 6.52644 36.0676 6.94004L35.2441 7.4702C35.0561 7.18444 34.823 6.97012 34.5448 6.82724C34.2665 6.68436 33.9582 6.61292 33.6198 6.61292C33.2288 6.61292 32.8753 6.6994 32.5595 6.87236C32.2512 7.04532 32.0068 7.29348 31.8263 7.61684C31.6533 7.93268 31.5669 8.2974 31.5669 8.711C31.5669 9.13212 31.6533 9.50436 31.8263 9.82772C32.0068 10.1436 32.2512 10.388 32.5595 10.5609C32.8753 10.7339 33.2288 10.8204 33.6198 10.8204C33.9582 10.8204 34.2665 10.7489 34.5448 10.606C34.823 10.4632 35.0561 10.2488 35.2441 9.96308L36.0676 10.482C35.8345 10.8956 35.5036 11.2152 35.0749 11.4408C34.6538 11.6588 34.1725 11.7679 33.6311 11.7679ZM38.2366 5.6654C39.0638 5.6654 39.6955 5.86844 40.1316 6.27452C40.5753 6.6806 40.7972 7.28596 40.7972 8.0906V11.7002H39.7707V10.9106C39.5902 11.1888 39.3308 11.4032 38.9924 11.5536C38.6615 11.6964 38.2667 11.7679 37.808 11.7679C37.1387 11.7679 36.601 11.6062 36.1949 11.2828C35.7964 10.9595 35.5971 10.5346 35.5971 10.0082C35.5971 9.4818 35.7888 9.06068 36.1724 8.74484C36.5559 8.42148 37.165 8.2598 37.9997 8.2598H39.7143V8.04548C39.7143 7.57924 39.5789 7.22204 39.3082 6.97388C39.0375 6.72572 38.6389 6.60164 38.1125 6.60164C37.7591 6.60164 37.4132 6.6618 37.0748 6.78212C36.7364 6.89492 36.4506 7.04908 36.2175 7.2446L35.7663 6.43244C36.0746 6.18428 36.4431 5.99628 36.8717 5.86844C37.3004 5.73308 37.7553 5.6654 38.2366 5.6654ZM37.9884 10.9332C38.402 10.9332 38.7592 10.8429 39.06 10.6624C39.3608 10.4744 39.5789 10.2112 39.7143 9.87284V9.03812H38.0448C37.1274 9.03812 36.6687 9.34644 36.6687 9.96308C36.6687 10.2639 36.7852 10.5008 37.0184 10.6737C37.2515 10.8467 37.5748 10.9332 37.9884 10.9332Z" fill="black"/>
</svg>
