<svg width="44" height="18" viewBox="0 0 44 18" fill="none" xmlns="http://www.w3.org/2000/svg">
<line x1="12.3887" y1="0.310588" x2="12.3887" y2="7.76471" stroke="black" stroke-width="0.621176" stroke-linecap="round"/>
<line x1="14.253" y1="0.310588" x2="14.253" y2="7.76471" stroke="black" stroke-width="0.621176" stroke-linecap="round"/>
<line x1="16.1163" y1="0.310588" x2="16.1163" y2="7.76471" stroke="black" stroke-width="0.621176" stroke-linecap="round"/>
<line x1="18.2911" y1="0.621177" x2="18.2911" y2="7.45412" stroke="black" stroke-width="1.24235" stroke-linecap="round"/>
<line x1="20.4649" y1="0.310588" x2="20.4649" y2="7.76471" stroke="black" stroke-width="0.621176" stroke-linecap="round"/>
<line x1="24.1905" y1="0.310588" x2="24.1905" y2="7.76471" stroke="black" stroke-width="0.621176" stroke-linecap="round"/>
<line x1="26.0547" y1="0.310588" x2="26.0547" y2="7.76471" stroke="black" stroke-width="0.621176" stroke-linecap="round"/>
<line x1="22.6378" y1="0.621177" x2="22.6378" y2="7.45412" stroke="black" stroke-width="1.24235" stroke-linecap="round"/>
<line x1="28.2286" y1="0.621177" x2="28.2286" y2="7.45412" stroke="black" stroke-width="1.24235" stroke-linecap="round"/>
<path d="M7.50588 9.96876V17.2158H6.12894L2.51576 12.8158V17.2158H0.859294V9.96876H2.24659L5.84941 14.3688V9.96876H7.50588ZM11.7318 17.2986C11.1451 17.2986 10.6171 17.1779 10.1478 16.9363C9.68538 16.6878 9.32302 16.3462 9.06075 15.9113C8.79847 15.4765 8.66734 14.983 8.66734 14.4309C8.66734 13.8787 8.79847 13.3852 9.06075 12.9504C9.32302 12.5156 9.68538 12.1774 10.1478 11.9358C10.6171 11.6873 11.1451 11.5631 11.7318 11.5631C12.3185 11.5631 12.843 11.6873 13.3055 11.9358C13.7679 12.1774 14.1302 12.5156 14.3925 12.9504C14.6548 13.3852 14.7859 13.8787 14.7859 14.4309C14.7859 14.983 14.6548 15.4765 14.3925 15.9113C14.1302 16.3462 13.7679 16.6878 13.3055 16.9363C12.843 17.1779 12.3185 17.2986 11.7318 17.2986ZM11.7318 15.9735C12.1459 15.9735 12.4841 15.8354 12.7464 15.5593C13.0156 15.2764 13.1502 14.9002 13.1502 14.4309C13.1502 13.9615 13.0156 13.5888 12.7464 13.3128C12.4841 13.0298 12.1459 12.8883 11.7318 12.8883C11.3177 12.8883 10.976 13.0298 10.7069 13.3128C10.4377 13.5888 10.3031 13.9615 10.3031 14.4309C10.3031 14.9002 10.4377 15.2764 10.7069 15.5593C10.976 15.8354 11.3177 15.9735 11.7318 15.9735ZM22.9735 11.5631C23.6706 11.5631 24.2227 11.7702 24.6299 12.1843C25.0441 12.5915 25.2511 13.2058 25.2511 14.0271V17.2158H23.6361V14.2756C23.6361 13.8339 23.5429 13.506 23.3565 13.2921C23.1771 13.0712 22.9183 12.9608 22.5801 12.9608C22.2004 12.9608 21.9002 13.085 21.6793 13.3335C21.4585 13.575 21.3481 13.9374 21.3481 14.4205V17.2158H19.733V14.2756C19.733 13.399 19.381 12.9608 18.677 12.9608C18.3043 12.9608 18.0075 13.085 17.7866 13.3335C17.5658 13.575 17.4553 13.9374 17.4553 14.4205V17.2158H15.8403V11.6459H17.3829V12.2878C17.5899 12.0532 17.8419 11.8737 18.1386 11.7495C18.4423 11.6252 18.7736 11.5631 19.1325 11.5631C19.5259 11.5631 19.8814 11.6425 20.1989 11.8012C20.5164 11.9531 20.7717 12.1774 20.965 12.4742C21.1928 12.1843 21.4792 11.96 21.8243 11.8012C22.1763 11.6425 22.5593 11.5631 22.9735 11.5631ZM29.9658 11.5631C30.4835 11.5631 30.9528 11.6839 31.3738 11.9255C31.8017 12.1601 32.1365 12.4949 32.378 12.9297C32.6196 13.3576 32.7404 13.858 32.7404 14.4309C32.7404 15.0037 32.6196 15.5076 32.378 15.9424C32.1365 16.3703 31.8017 16.7051 31.3738 16.9466C30.9528 17.1813 30.4835 17.2986 29.9658 17.2986C29.1997 17.2986 28.6165 17.0571 28.2162 16.5739V17.2158H26.6736V9.53394H28.2886V12.2361C28.6958 11.7874 29.2549 11.5631 29.9658 11.5631ZM29.6863 15.9735C30.1004 15.9735 30.4386 15.8354 30.7009 15.5593C30.97 15.2764 31.1046 14.9002 31.1046 14.4309C31.1046 13.9615 30.97 13.5888 30.7009 13.3128C30.4386 13.0298 30.1004 12.8883 29.6863 12.8883C29.2722 12.8883 28.9305 13.0298 28.6613 13.3128C28.3991 13.5888 28.2679 13.9615 28.2679 14.4309C28.2679 14.9002 28.3991 15.2764 28.6613 15.5593C28.9305 15.8354 29.2722 15.9735 29.6863 15.9735ZM35.339 12.381C35.5322 12.1118 35.7911 11.9082 36.1154 11.7702C36.4467 11.6321 36.8263 11.5631 37.2543 11.5631V13.0539C37.0748 13.0401 36.954 13.0332 36.8919 13.0332C36.4295 13.0332 36.0671 13.1644 35.8049 13.4266C35.5426 13.682 35.4114 14.0685 35.4114 14.5862V17.2158H33.7964V11.6459H35.339V12.381ZM43.5949 14.4516C43.5949 14.4723 43.5845 14.6172 43.5638 14.8864H39.3502C39.4261 15.2315 39.6055 15.5041 39.8885 15.7043C40.1715 15.9044 40.5235 16.0045 40.9445 16.0045C41.2344 16.0045 41.4898 15.9631 41.7106 15.8803C41.9384 15.7906 42.1489 15.6525 42.3422 15.4662L43.2014 16.3979C42.6769 16.9984 41.9108 17.2986 40.9031 17.2986C40.275 17.2986 39.7194 17.1779 39.2363 16.9363C38.7531 16.6878 38.3804 16.3462 38.1182 15.9113C37.8559 15.4765 37.7247 14.983 37.7247 14.4309C37.7247 13.8856 37.8524 13.3956 38.1078 12.9608C38.3701 12.519 38.7255 12.1774 39.1742 11.9358C39.6297 11.6873 40.137 11.5631 40.696 11.5631C41.2413 11.5631 41.7348 11.6804 42.1765 11.9151C42.6182 12.1498 42.9633 12.488 43.2118 12.9297C43.4672 13.3645 43.5949 13.8718 43.5949 14.4516ZM40.7064 12.7848C40.3406 12.7848 40.0334 12.8883 39.785 13.0953C39.5365 13.3024 39.3847 13.5854 39.3294 13.9443H42.073C42.0178 13.5923 41.8659 13.3128 41.6174 13.1057C41.369 12.8917 41.0653 12.7848 40.7064 12.7848Z" fill="black"/>
</svg>
