<svg width="37" height="38" viewBox="0 0 37 38" fill="none" xmlns="http://www.w3.org/2000/svg">
<path d="M19.4895 17.605C16.9677 16.5633 16.2381 15.9158 16.2381 14.72C16.2381 13.7568 16.9308 12.6318 18.8801 12.6318C20.6435 12.6318 21.7475 13.2631 22.2207 13.5326L22.5144 13.7014L23.4115 11.3311L23.1998 11.2085C22.1962 10.62 21.0641 10.2938 19.7497 10.2154V7.51904H17.458V10.3588C14.9132 10.8652 13.2839 12.6863 13.2839 15.0532C13.2839 17.8582 15.5652 19.1383 18.0268 20.1025C20.1184 20.9501 20.9707 21.8266 20.9707 23.1261C20.9707 24.5505 19.737 25.5462 17.969 25.5462C16.629 25.5462 15.2356 25.1312 14.1477 24.4062L13.839 24.2005L12.9775 26.6078L13.1543 26.7337C14.1361 27.4344 15.7237 27.9179 17.2636 27.9953V30.7969H19.5841V27.874C22.5984 27.2716 23.9523 24.9811 23.9523 22.9334C23.9526 20.4737 22.617 18.8805 19.4894 17.605L19.4895 17.605Z" fill="black"/>
<path d="M18.5 0.992188C8.29857 0.992188 0 9.25905 0 19.4202C0 29.5813 8.29923 37.8482 18.5 37.8482C28.7008 37.8482 37 29.5813 37 19.4202C37 9.25905 28.7008 0.992188 18.5 0.992188V0.992188ZM18.5 35.5363C9.57375 35.5363 2.3125 28.3074 2.3125 19.4208C2.3125 10.5342 9.57375 3.30535 18.5 3.30535C27.4263 3.30535 34.6875 10.5342 34.6875 19.4208C34.6875 28.3074 27.4249 35.5363 18.5 35.5363Z" fill="black"/>
</svg>
