<svg width="38" height="40" viewBox="0 0 38 40" fill="none" xmlns="http://www.w3.org/2000/svg">
<path d="M2.18345 39.227H12.3653C12.3669 39.227 12.3677 39.2262 12.3696 39.2262C12.3783 39.2262 12.3861 39.2279 12.3947 39.2279H36.6761C37.4065 39.2279 38 38.6338 38 37.904L37.9997 20.4845C37.9997 20.4207 37.9962 20.3588 37.9892 20.3099C37.9632 20.1161 37.9632 20.1145 35.1999 14.386V12.0373C35.1999 10.8391 34.2244 9.86391 33.0262 9.86391L24.9686 9.86418C23.7705 9.86418 22.795 10.8388 22.795 12.0375V14.3339C22.3963 15.0243 22.0474 15.6297 21.7382 16.1662C21.4652 15.2929 21.0254 14.5312 20.399 13.8733C20.117 13.5757 19.926 13.1971 19.8449 12.7781C19.72 12.1308 19.6562 11.5472 19.6562 11.0426C19.6562 9.6885 19.2062 6.54448 18.9567 4.90252C19.1278 4.61629 19.2194 4.27518 19.2194 3.90703V1.89558C19.2194 1.15036 18.6148 0.544922 17.8713 0.544922H14.2362C13.4918 0.544922 12.8872 1.15036 12.8872 1.89558V3.90676C12.8872 4.27327 12.9769 4.61191 13.1515 4.90141C12.9013 6.54448 12.4507 9.69445 12.4507 11.0423C12.4507 11.5197 12.395 12.0613 12.285 12.6557C12.2058 13.0865 11.9996 13.4814 11.6871 13.8003C10.566 14.9439 9.94809 16.4491 9.94809 18.04V27.8952H2.18389C0.97978 27.8952 0 28.8737 0 30.0778V37.0442C0 38.2473 0.97978 39.2271 2.18389 39.2271L2.18345 39.227ZM12.3943 37.445C12.0286 37.445 11.7305 37.1466 11.7305 36.7804V31.3322L15.5896 33.38C15.7205 33.4489 15.8643 33.4837 16.007 33.4837C16.1599 33.4837 16.3132 33.4437 16.4502 33.3659L19.4342 31.6558V37.4451L12.3943 37.445ZM21.2179 37.445L21.2171 21.6198H30.3513V37.445H21.2179ZM19.4348 29.6006L15.9908 31.5742L11.7313 29.3135V21.6199H19.4353L19.4348 29.6006ZM36.217 20.6255V37.445H32.1343V21.6198H34.3079C34.8001 21.6198 35.1996 21.2203 35.1996 20.7281C35.1996 20.2359 34.8001 19.8364 34.3079 19.8364H32.5305L34.2687 16.5627C35.0958 18.2795 35.969 20.0957 36.2169 20.6251L36.217 20.6255ZM24.2008 15.4638H30.9672C31.4594 15.4638 31.8589 15.0643 31.8589 14.5721C31.8589 14.0799 31.4594 13.6804 30.9672 13.6804H24.5776V12.0373C24.5776 11.8219 24.753 11.6473 24.9684 11.6473H33.0253C33.2407 11.6473 33.4161 11.8219 33.4161 12.0373V14.3669L30.5111 19.8367H21.6924C22.3295 18.7156 23.3809 16.8858 24.2009 15.4638H24.2008ZM17.4361 2.32809V3.90653C17.4361 3.94302 17.4325 3.96573 17.4352 3.97032C17.2023 4.16925 17.0868 4.47657 17.1341 4.78362C17.3071 5.90124 17.8726 9.65609 17.8726 11.0416C17.8726 11.0889 17.8761 11.1394 17.8769 11.1889H14.2294C14.2302 11.1399 14.2337 11.0891 14.2337 11.0416C14.2337 9.89149 14.6272 7.087 14.8591 5.53852H15.6324C16.1246 5.53852 16.5241 5.13904 16.5241 4.64683C16.5241 4.15463 16.1247 3.75513 15.6324 3.75513H14.6702L14.67 2.32801L17.4361 2.32809ZM12.959 15.0486C13.5228 14.4756 13.8961 13.758 14.0375 12.9771C14.0383 12.9736 14.0391 12.9704 14.0391 12.9666C14.0575 12.9682 14.074 12.9725 14.0915 12.9725H18.0686C18.0775 13.0206 18.0834 13.0666 18.0937 13.1155C18.2386 13.8683 18.5875 14.5542 19.1059 15.1005C19.9119 15.9487 20.2858 17.0225 20.2838 18.4805C20.2838 18.5435 20.2906 18.6062 20.303 18.6662C19.987 19.2251 19.7857 19.5902 19.6584 19.8371L11.7309 19.8373V18.0399C11.7309 16.9179 12.1671 15.856 12.9588 15.0487L12.959 15.0486ZM2.18352 29.6768H9.94772V36.7802C9.94772 37.0105 9.98178 37.233 10.0418 37.444H2.18348C1.96212 37.444 1.78291 37.2643 1.78291 37.0443V32.8822H7.71439C8.20658 32.8822 8.60608 32.4827 8.60608 31.9905C8.60608 31.4983 8.2066 31.0988 7.71439 31.0988L1.78243 31.0985V30.0774C1.78243 29.8565 1.96217 29.6768 2.18354 29.6768L2.18352 29.6768Z" fill="black"/>
</svg>
