<svg width="34" height="38" viewBox="0 0 34 38" fill="none" xmlns="http://www.w3.org/2000/svg">
<path d="M30.4835 28.3508C30.4835 29.7531 29.714 30.0774 29.714 30.0774C29.714 30.0774 16.727 37.4094 15.8457 37.8389C15.4073 38.0537 14.9645 38.0537 14.526 37.8389C14.526 37.8389 0.988746 30.0774 0.550259 29.7531C0.331015 29.5384 0.111771 29.2141 0 28.8898V12.933C0 12.1792 0.881275 11.7454 0.881275 11.7454L14.4185 4.08921C14.9688 3.87444 15.519 3.87444 16.0693 4.08921C16.0693 4.08921 28.0632 10.8821 29.3873 11.6359C30.1568 11.9602 30.5996 12.714 30.4878 13.5774C30.4835 13.3668 30.4835 26.9484 30.4835 28.3508ZM25.0884 13.0425C22.3371 11.5349 15.734 7.76151 15.734 7.76151C15.403 7.54673 14.8527 7.54673 14.4142 7.76151L3.74004 13.7964C3.74004 13.7964 2.97054 14.2259 2.97054 14.765V27.2727C2.97054 27.4874 3.18978 27.8117 3.30155 28.0265C3.63257 28.2413 14.3067 34.2803 14.3067 34.2803C14.6378 34.4951 15.0762 34.4951 15.4073 34.2803C16.0693 33.9561 26.1932 28.136 26.1932 28.136C26.1932 28.136 26.7435 27.9212 26.7435 26.8431V23.7183L14.857 30.8355V28.1402C14.857 27.3864 15.188 26.8473 15.7383 26.1988L26.4124 19.9407C26.6317 19.6164 26.8509 19.0774 26.8509 18.6478V15.8431L14.857 22.9602V20.0502C14.857 19.4017 15.519 18.9721 16.0693 18.6478L25.0884 13.0425ZM33.8925 3.12482C33.8925 2.91004 33.6733 2.80054 33.5615 2.80054H31.0295V0.214778C31.0295 -6.43459e-08 30.8102 0 30.591 0L29.2712 0.214778C29.052 0.214778 29.052 0.324273 29.052 0.429557V2.80054H26.6317C26.4124 2.80054 26.4124 3.01532 26.3007 3.01532V4.63248H29.2712V7.32774C29.2712 7.54252 29.4905 7.54252 29.7097 7.54252L31.0295 7.32774C31.2487 7.32774 31.2487 7.21824 31.2487 7.11296V4.74197H34L33.8925 3.12482Z" fill="black"/>
</svg>
